<svg width="51" height="50" viewBox="0 0 51 50" fill="none" xmlns="http://www.w3.org/2000/svg">
<path d="M46.3866 0H4.61336C2.0655 0 0 2.025 0 4.52291V45.477C0 47.975 2.0655 50 4.61336 50H46.3865C48.9345 50 51 47.975 51 45.477V4.52291C51 2.025 48.9345 0 46.3866 0ZM15.7816 43.1733C15.7816 43.9003 15.1805 44.4895 14.439 44.4895H8.72407C7.98257 44.4895 7.38152 43.9003 7.38152 43.1733V19.6863C7.38152 18.9593 7.98257 18.37 8.72407 18.37H14.439C15.1805 18.37 15.7816 18.9593 15.7816 19.6863V43.1733ZM11.5815 16.156C8.58309 16.156 6.15231 13.7729 6.15231 10.8332C6.15231 7.89359 8.58309 5.51047 11.5815 5.51047C14.58 5.51047 17.0108 7.89359 17.0108 10.8332C17.0108 13.7729 14.5801 16.156 11.5815 16.156ZM45.6477 43.2793C45.6477 43.9476 45.0949 44.4895 44.4133 44.4895H38.2807C37.599 44.4895 37.0463 43.9476 37.0463 43.2793V32.2626C37.0463 30.6191 37.538 25.0609 32.6655 25.0609C28.886 25.0609 28.1194 28.8653 27.9655 30.5726V43.2793C27.9655 43.9476 27.4129 44.4895 26.7311 44.4895H20.7999C20.1182 44.4895 19.5654 43.9476 19.5654 43.2793V19.5802C19.5654 18.9119 20.1182 18.37 20.7999 18.37H26.7311C27.4128 18.37 27.9655 18.9119 27.9655 19.5802V21.6293C29.3669 19.5674 31.4496 17.9759 35.8841 17.9759C45.7039 17.9759 45.6477 26.9702 45.6477 31.912V43.2793Z" fill="#4F4F4F"/>
</svg>
