<svg width="88" height="88" viewBox="0 0 88 88" fill="none" xmlns="http://www.w3.org/2000/svg">
<path d="M65.3849 46.793L64.9312 50.875L64.6252 53.625H26.1252L25.8193 50.875L25.3655 46.793C24.9622 43.16 25.507 39.4845 26.9468 36.1247C28.2151 33.1637 28.7912 29.9524 28.6312 26.7351L28.3923 21.9776C28.2774 19.6761 28.6315 17.3753 29.4331 15.2148C30.2348 13.0543 31.4672 11.0794 33.0555 9.40979C34.6438 7.74023 36.5549 6.41092 38.6727 5.50259C40.7905 4.59427 43.0709 4.12589 45.3752 4.12589C47.6796 4.12589 49.96 4.59427 52.0778 5.50259C54.1956 6.41092 56.1067 7.74023 57.695 9.40979C59.2833 11.0794 60.5157 13.0543 61.3173 15.2148C62.119 17.3753 62.4731 19.6761 62.3582 21.9776L62.1193 26.7351C61.9593 29.9524 62.5354 33.1637 63.8037 36.1247C65.244 39.4843 65.7888 43.16 65.3849 46.793Z" fill="#8F4D2E"/>
<path d="M65.3849 46.793L64.9312 50.875H49.5002V35.75L52.2502 30.25V19.25C52.2485 15.9353 51.1589 12.7127 49.1488 10.077C47.1388 7.44129 44.3192 5.53808 41.123 4.65953C43.7054 3.99668 46.4073 3.94963 49.0112 4.52218C51.6151 5.09474 54.048 6.27088 56.1141 7.95587C58.1802 9.64085 59.8217 11.7876 60.9062 14.2231C61.9908 16.6586 62.4881 19.3148 62.3582 21.9777L62.1193 26.7352C61.9593 29.9524 62.5354 33.1637 63.8037 36.1247C65.244 39.4843 65.7888 43.16 65.3849 46.793Z" fill="#82462A"/>
<path d="M52.8 48.125C52.5472 48.1251 52.2968 48.0754 52.0632 47.9787C51.8296 47.8821 51.6173 47.7403 51.4385 47.5615C51.2597 47.3827 51.1179 47.1704 51.0213 46.9368C50.9246 46.7032 50.8749 46.4528 50.875 46.2V37.125H39.875V46.2C39.8751 46.4528 39.8254 46.7032 39.7287 46.9368C39.6321 47.1704 39.4903 47.3827 39.3115 47.5615C39.1327 47.7403 38.9204 47.8821 38.6868 47.9787C38.4532 48.0754 38.2028 48.1251 37.95 48.125H35.75V56.375H55V48.125H52.8Z" fill="#FEC9A3"/>
<path d="M46.2041 44C47.9067 43.9813 49.5529 43.3873 50.875 42.3144V37.125H39.875V42.3139C41.1971 43.3869 42.8433 43.9812 44.5459 44H46.2041Z" fill="#FEB784"/>
<path d="M57.75 22V28.875C57.75 32.1571 56.4462 35.3047 54.1254 37.6254C51.8047 39.9462 48.6571 41.25 45.375 41.25C42.0929 41.25 38.9453 39.9462 36.6246 37.6254C34.3038 35.3047 33 32.1571 33 28.875V22C35.7036 20.1984 37.8898 17.7218 39.3422 14.8156L39.875 13.75L40.6553 14.4014C44.0717 17.2483 48.01 19.4024 52.25 20.7436C54.0457 21.3128 55.8853 21.733 57.75 22Z" fill="#FEC9A3"/>
<path d="M57.7498 22V28.875C57.7491 31.7473 56.7499 34.5301 54.9231 36.7466C53.0963 38.9632 50.5556 40.4756 47.7363 41.0248C49.1679 39.6196 50.3045 37.9427 51.0795 36.0925C51.8546 34.2423 52.2524 32.256 52.2498 30.25V20.7436C54.0455 21.3128 55.885 21.733 57.7498 22Z" fill="#FEC093"/>
<path d="M39.1875 27.5C38.7796 27.5 38.3808 27.379 38.0416 27.1524C37.7025 26.9258 37.4381 26.6037 37.282 26.2268C37.1259 25.8499 37.085 25.4352 37.1646 25.0351C37.2442 24.635 37.4406 24.2675 37.7291 23.9791C38.0175 23.6906 38.385 23.4942 38.7851 23.4146C39.1852 23.335 39.5999 23.3759 39.9768 23.532C40.3537 23.6881 40.6758 23.9525 40.9024 24.2916C41.129 24.6308 41.25 25.0296 41.25 25.4375C41.2494 25.9843 41.0319 26.5086 40.6453 26.8953C40.2586 27.2819 39.7343 27.4994 39.1875 27.5Z" fill="#7A432A"/>
<path d="M51.5625 27.5C51.1546 27.5 50.7558 27.379 50.4166 27.1524C50.0775 26.9258 49.8131 26.6037 49.657 26.2268C49.5009 25.8499 49.46 25.4352 49.5396 25.0351C49.6192 24.635 49.8156 24.2675 50.1041 23.9791C50.3925 23.6906 50.76 23.4942 51.1601 23.4146C51.5602 23.335 51.9749 23.3759 52.3518 23.532C52.7286 23.6881 53.0508 23.9525 53.2774 24.2916C53.504 24.6308 53.625 25.0296 53.625 25.4375C53.6244 25.9843 53.4069 26.5086 53.0202 26.8953C52.6336 27.2819 52.1093 27.4994 51.5625 27.5Z" fill="#7A432A"/>
<path d="M45.375 34.375C44.2814 34.3738 43.2329 33.9388 42.4595 33.1655C41.6862 32.3921 41.2512 31.3436 41.25 30.25H44C44 30.6147 44.1449 30.9644 44.4027 31.2223C44.6606 31.4801 45.0103 31.625 45.375 31.625C45.7397 31.625 46.0894 31.4801 46.3473 31.2223C46.6051 30.9644 46.75 30.6147 46.75 30.25H49.5C49.4988 31.3436 49.0638 32.3921 48.2905 33.1655C47.5171 33.9388 46.4686 34.3738 45.375 34.375Z" fill="#F7A468"/>
<path d="M38.5 53.625H52.25V63.25H38.5V53.625Z" fill="#E0E0DE"/>
<path d="M73.3844 83.8183C72.4089 83.9807 71.4075 83.7916 70.5585 83.2845C69.7096 82.7773 69.0683 81.9853 68.7489 81.0494L59.667 64.0114C60.2453 65.7402 60.3726 67.5879 60.0369 69.3797C59.7012 71.1714 58.9137 72.8478 57.7489 74.25V85.25H32.9989V74.25C31.8172 72.8316 31.0217 71.1322 30.6892 69.3162C30.3568 67.5003 30.4988 65.6292 31.1014 63.8842L21.8717 81.0494C21.5175 82.0911 20.766 82.9508 19.7809 83.4411C18.7958 83.9314 17.6569 84.0126 16.6122 83.6672C15.5675 83.3218 14.7015 82.5776 14.2029 81.5967C13.7043 80.6158 13.6134 79.4776 13.95 78.43L24.0459 53.3002C24.6594 51.7718 25.7164 50.4621 27.0808 49.5398C28.4451 48.6175 30.0544 48.1247 31.7012 48.125H37.1239L45.3739 63.25L53.6239 48.125H59.0259C60.6774 48.1261 62.2907 48.6225 63.6572 49.5499C65.0237 50.4774 66.0807 51.7933 66.6916 53.3277L76.6723 78.43C76.8547 79.0003 76.9122 79.6032 76.8409 80.1976C76.7697 80.7921 76.5714 81.3643 76.2595 81.8754C75.9477 82.3865 75.5295 82.8245 75.0334 83.1598C74.5373 83.495 73.9749 83.7196 73.3844 83.8183Z" fill="#EC8C8C"/>
<path d="M12.7578 78.8923L13.7495 66H21.9995V79.2473C21.9995 80.4746 21.5119 81.6517 20.6441 82.5196C19.7762 83.3874 18.5991 83.875 17.3718 83.875C16.7341 83.875 16.1034 83.7432 15.5191 83.488C14.9348 83.2327 14.4096 82.8594 13.9763 82.3916C13.5431 81.9237 13.2112 81.3714 13.0015 80.7693C12.7918 80.1671 12.7089 79.5281 12.7578 78.8923Z" fill="#F59898"/>
<path d="M16.9849 45.9422C16.5963 46.0393 16.2345 46.2225 15.9262 46.4782C15.6178 46.7339 15.3709 47.0555 15.2035 47.4194C15.0361 47.7833 14.9526 48.1801 14.9592 48.5806C14.9657 48.9811 15.0621 49.375 15.2412 49.7333L16.5 52.25H11.5725C10.2918 52.25 9.0286 51.9519 7.88305 51.3791L6.51286 50.694C6.26131 50.5683 5.98178 50.5089 5.70083 50.5215C5.41987 50.5342 5.14681 50.6184 4.90757 50.7663C4.66833 50.9141 4.47085 51.1207 4.33389 51.3663C4.19692 51.6119 4.12502 51.8885 4.125 52.1697V56.0503C4.125 56.5611 4.26722 57.0617 4.53573 57.4961C4.80424 57.9306 5.18843 58.2816 5.64523 58.51L7.88305 59.6291C9.0286 60.2019 10.2918 60.5 11.5725 60.5H22V52.25L20.1171 47.5429C19.8768 46.9425 19.427 46.4495 18.8511 46.1552C18.2752 45.8609 17.6122 45.7853 16.9849 45.9422Z" fill="#FEC9A3"/>
<path d="M13.75 60.5H22V66H13.75V60.5Z" fill="#E0E0DE"/>
<path d="M73.3866 83.8183C72.4111 83.9808 71.4097 83.7916 70.5607 83.2845C69.7118 82.7774 69.0705 81.9853 68.7511 81.0494L59.6692 64.0114C60.2474 65.7402 60.3748 67.5879 60.0391 69.3797C59.7034 71.1714 58.9159 72.8478 57.7511 74.25V85.25H33.4531C44.802 77.8388 54.3772 68.4338 62.4141 48.8538C64.3681 49.7318 65.9033 51.3366 66.6937 53.3277L76.6745 78.43C76.8568 79.0003 76.9143 79.6032 76.8431 80.1976C76.7719 80.7921 76.5736 81.3643 76.2617 81.8754C75.9499 82.3865 75.5317 82.8246 75.0356 83.1598C74.5395 83.495 73.9771 83.7196 73.3866 83.8183Z" fill="#E07F7F"/>
<path d="M64.625 79.75L50.875 77V57.75L64.625 60.5V79.75Z" fill="#A36548"/>
<path d="M70.125 79.75L83.875 77V57.75L70.125 60.5V79.75Z" fill="#8F4D2E"/>
<path d="M64.625 60.5H70.125V79.75H64.625V60.5Z" fill="#95573A"/>
<path d="M67.375 60.5C67.375 59.3473 66.9661 58.2321 66.2211 57.3526C65.476 56.473 64.4432 55.8863 63.3062 55.6968L50.875 53.625V57.75L64.625 60.5H67.375C67.375 59.3473 67.7839 58.2321 68.5289 57.3526C69.274 56.473 70.3068 55.8863 71.4438 55.6968L83.875 53.625V57.75L70.125 60.5H67.375Z" fill="#D4BD81"/>
<path d="M81.351 79.6189L75.851 80.5357C75.654 80.5685 75.4523 80.558 75.2598 80.505C75.0673 80.4519 74.8886 80.3576 74.7362 80.2285C74.5839 80.0994 74.4614 79.9387 74.3775 79.7576C74.2935 79.5764 74.25 79.3791 74.25 79.1794V74.0687C74.25 73.645 74.4002 73.2351 74.674 72.9118C74.9478 72.5886 75.3274 72.3729 75.7453 72.3032L80.4155 71.5248C80.672 71.482 80.9346 71.4956 81.1853 71.5646C81.436 71.6336 81.6686 71.7564 81.867 71.9245C82.0654 72.0925 82.2248 72.3018 82.3341 72.5377C82.4434 72.7736 82.5 73.0304 82.5 73.2904V78.2626C82.5 78.5881 82.3845 78.903 82.1741 79.1514C81.9637 79.3997 81.6721 79.5654 81.351 79.6189Z" fill="#FEC9A3"/>
</svg>
