<svg width="89" height="90" viewBox="0 0 89 90" fill="none" xmlns="http://www.w3.org/2000/svg">
<path d="M20.5117 61.5234V35.5078H15.8184V28.4766H27.4648V61.5234H20.5117ZM39.0183 41.7707C37.771 40.4633 36.8516 38.8017 36.8516 36.7424C36.8516 32.7427 39.4087 28.4683 46.5859 28.4683C53.7631 28.4683 56.3203 32.7427 56.3203 36.7424C56.3203 38.7804 55.4193 40.4297 54.1909 41.7309C58.2575 44.3882 60.3184 47.4712 60.3184 50.9045C60.3184 56.7547 55.6169 61.5152 49.8384 61.5152H43.3335C37.555 61.5152 32.8535 56.7547 32.8535 50.9045C32.8535 47.5269 34.9272 44.4569 39.0183 41.7707ZM53.3652 50.9045C53.3652 49.4604 50.2696 47.2433 47.0653 45.8329L46.5859 45.9901L46.1616 45.8508C45.323 46.2298 44.2793 46.7475 43.2513 47.3833C40.5318 49.0636 39.8066 50.3867 39.8066 50.9045C39.8066 52.8779 41.3887 54.4839 43.3335 54.4839H49.8384C51.7831 54.4839 53.3652 52.8779 53.3652 50.9045ZM43.8067 36.6264C44.0892 37.1283 45.3148 37.9454 46.5819 38.5249C47.8666 37.9385 49.0827 37.1283 49.3652 36.6264C49.3482 36.1436 49.2219 36.0599 49.1098 35.985C48.9387 35.871 48.2509 35.4996 46.5859 35.4996C44.921 35.4996 44.2331 35.871 44.062 35.985C43.95 36.0599 43.8237 36.1436 43.8067 36.6264ZM44.5 82.9688C23.7968 82.9688 6.95312 65.9358 6.95312 45C6.95312 24.0642 23.7968 7.03125 44.5 7.03125C58.7946 7.03125 71.2478 15.1522 77.5885 27.0703H85.3381C83.1394 21.9521 79.9861 17.2451 75.9663 13.1802C67.5614 4.68086 56.3862 0 44.5 0C32.6138 0 21.4386 4.68086 13.0337 13.1802C4.62885 21.6795 0 32.9803 0 45C0 57.0197 4.62885 68.3205 13.0337 76.8198C21.4386 85.3191 32.6138 90 44.5 90C56.3862 90 67.5614 85.3191 75.9663 76.8198C79.2385 73.5116 81.9348 69.7769 84.0119 65.7422H75.933C69.2223 76.1071 57.6396 82.9688 44.5 82.9688ZM80.3086 42.8906V34.1016H73.3555V42.8906H64.6641V49.9219H73.3555V58.7109H80.3086V49.9219H89V42.8906H80.3086Z" fill="url(#paint0_linear)"/>
<defs>
<linearGradient id="paint0_linear" x1="44.5" y1="0" x2="44.5" y2="90" gradientUnits="userSpaceOnUse">
<stop stop-color="#2AF598"/>
<stop offset="1" stop-color="#009EFD"/>
</linearGradient>
</defs>
</svg>
