<svg width="49" height="49" viewBox="0 0 49 49" fill="none" xmlns="http://www.w3.org/2000/svg">
<path d="M24.3631 45.8054C23.9642 45.8054 23.6356 45.488 23.624 45.0869C23.6124 44.6786 23.9339 44.3384 24.3421 44.3268C24.7511 44.3082 25.0947 44.6248 25.1126 45.033C25.1309 45.4409 24.8139 45.7863 24.4057 45.8043L24.3844 45.805C24.3773 45.8054 24.3702 45.8054 24.3631 45.8054ZM21.3895 45.694C21.3604 45.694 21.3316 45.6925 21.302 45.6891L21.3002 45.6887C20.8938 45.648 20.5996 45.2861 20.6404 44.8794C20.6811 44.473 21.046 44.1773 21.452 44.2177L21.4748 44.2199C21.8804 44.2678 22.1705 44.6353 22.1226 45.0409C22.0785 45.4173 21.7593 45.694 21.3895 45.694ZM27.3298 45.4659C26.9837 45.4659 26.6745 45.2218 26.6053 44.8693C26.5261 44.4685 26.787 44.0797 27.1878 44.0009L27.2016 43.9982C27.6028 43.9216 27.9901 44.1848 28.0667 44.5859C28.1433 44.9867 27.8805 45.3743 27.4794 45.451L27.4738 45.4521C27.4252 45.4614 27.3773 45.4659 27.3298 45.4659ZM18.4556 45.1306C18.3913 45.1306 18.3259 45.122 18.2605 45.1044L18.2564 45.1033C17.862 44.9983 17.6264 44.5934 17.7311 44.199C17.8358 43.8042 18.2403 43.5691 18.6347 43.6734L18.65 43.6775C19.0441 43.7851 19.2762 44.1915 19.1685 44.5855C19.0788 44.9145 18.7809 45.1306 18.4556 45.1306ZM30.2114 44.676C29.909 44.676 29.6256 44.4898 29.5161 44.1893C29.3766 43.8053 29.5748 43.381 29.9583 43.2416L29.9707 43.2375C30.3546 43.0995 30.7782 43.2988 30.9165 43.6831C31.0548 44.0674 30.8548 44.491 30.4705 44.6293L30.4641 44.6315C30.3804 44.6618 30.2952 44.676 30.2114 44.676ZM15.6391 44.122C15.5382 44.122 15.4357 44.101 15.3374 44.0566L15.3273 44.0521C14.9554 43.8835 14.7905 43.4453 14.9591 43.0734C15.1277 42.7014 15.5655 42.5365 15.9378 42.7051C16.3102 42.8734 16.4795 43.313 16.3117 43.6853C16.1879 43.9594 15.9202 44.122 15.6391 44.122ZM32.9352 43.4539C32.6705 43.4539 32.4152 43.3119 32.2821 43.0625C32.0896 42.7021 32.226 42.2539 32.5864 42.0617C32.9442 41.8651 33.3939 41.9956 33.5909 42.3533C33.7876 42.7111 33.6575 43.1608 33.2993 43.3575L33.2825 43.3668C33.1715 43.4259 33.0526 43.4539 32.9352 43.4539ZM39.6513 36.8437L39.6561 36.847L39.578 36.7913L39.6513 36.8437ZM5.51664 33.6204C5.22467 33.6204 4.94803 33.4462 4.83102 33.1591L4.82915 33.1539C4.67326 32.7763 4.85307 32.3438 5.23028 32.1882C5.60786 32.0324 6.04039 32.2122 6.19591 32.5894L6.20114 32.6025C6.35516 32.9808 6.17273 33.4122 5.7944 33.5659C5.70356 33.6029 5.60898 33.6204 5.51664 33.6204ZM42.2218 32.2013C42.1444 32.2013 42.0655 32.189 41.9878 32.1632C41.6031 32.035 41.3937 31.6208 41.5175 31.2353C41.6382 30.8469 42.0502 30.6275 42.4394 30.7456C42.83 30.8645 43.0506 31.2761 42.9324 31.6664L42.9231 31.6955C42.8199 32.0054 42.5313 32.2013 42.2218 32.2013ZM4.61232 30.7736C4.27773 30.7736 3.97455 30.5452 3.89342 30.2058L3.89118 30.1961C3.7966 29.7987 4.04147 29.3998 4.43886 29.3048C4.83625 29.2099 5.23514 29.4551 5.32972 29.8525L5.33196 29.8622C5.42692 30.2592 5.18168 30.6581 4.78466 30.7531C4.72671 30.7669 4.66914 30.7736 4.61232 30.7736ZM42.9018 29.2929C42.8592 29.2929 42.8162 29.2891 42.7724 29.2813C42.3732 29.211 42.1055 28.8319 42.1713 28.433C42.2334 28.0311 42.6083 27.7538 43.0106 27.8128C43.4143 27.8726 43.6936 28.2469 43.6341 28.651L43.6293 28.6816C43.5661 29.0401 43.254 29.2929 42.9018 29.2929ZM4.15586 27.8203C3.77641 27.8203 3.45379 27.5309 3.42014 27.1463L3.4179 27.1156C3.39397 26.7078 3.70501 26.3582 4.11287 26.3339C4.51699 26.3092 4.86578 26.6169 4.89382 27.0207C4.92635 27.4259 4.62578 27.7829 4.22016 27.8177C4.19848 27.8196 4.17717 27.8203 4.15586 27.8203ZM43.1283 26.3145C42.7197 26.3145 42.3889 25.9836 42.3889 25.575V25.5653C42.3889 25.5601 42.3889 25.5548 42.3889 25.55C42.3889 25.5436 42.3889 25.5369 42.3889 25.5305V25.5208C42.3889 25.1122 42.7197 24.781 43.1283 24.781C43.5366 24.781 43.8678 25.1122 43.8678 25.5208V25.5305C43.8678 25.5358 43.8678 25.541 43.8674 25.5459C43.8678 25.5522 43.8678 25.5586 43.8678 25.5653V25.575C43.8678 25.9836 43.5369 26.3145 43.1283 26.3145ZM4.15399 24.8348C4.13268 24.8348 4.111 24.8337 4.08932 24.8318C3.68295 24.7967 3.38201 24.4393 3.4164 24.0333C3.44482 23.6295 3.79024 23.3219 4.19736 23.3473C4.60522 23.3712 4.91625 23.7211 4.89233 24.1286L4.88971 24.1593C4.85644 24.5443 4.53344 24.8348 4.15399 24.8348ZM42.8962 23.2923C42.544 23.2923 42.2322 23.04 42.1691 22.6811L42.1638 22.6505C42.1048 22.2463 42.384 21.8706 42.7881 21.8112C43.19 21.7517 43.5665 22.0303 43.6267 22.4333C43.6921 22.8318 43.4248 23.2101 43.0255 23.2808C42.9822 23.2886 42.9388 23.2923 42.8962 23.2923ZM43.0203 22.5245L42.8954 22.5428L43.0203 22.5245ZM4.6026 21.8822C4.54578 21.8822 4.48783 21.8755 4.43026 21.8617C4.03361 21.7671 3.78838 21.3689 3.88221 20.9723C3.96969 20.5779 4.35886 20.3259 4.7555 20.4089C5.15514 20.4927 5.41159 20.8844 5.32785 21.2841L5.32112 21.3144C5.24037 21.6538 4.93719 21.8822 4.6026 21.8822ZM42.2177 20.3884C41.9066 20.3884 41.6162 20.1895 41.5126 19.8788L41.5044 19.853C41.384 19.4627 41.6031 19.0489 41.9937 18.9289C42.3844 18.8085 42.7975 19.0276 42.9179 19.4182L42.9182 19.4194C43.0472 19.807 42.8367 20.2216 42.4491 20.3506C42.3728 20.3764 42.2947 20.3884 42.2177 20.3884ZM5.49907 19.0309C5.40636 19.0309 5.31215 19.0134 5.22093 18.9764C4.84261 18.8227 4.66054 18.3913 4.81419 18.013L4.81793 18.004C4.97158 17.6257 5.40262 17.4432 5.78132 17.5969C6.15964 17.7505 6.3417 18.1819 6.18806 18.5603L6.18432 18.5696C6.06768 18.8567 5.79104 19.0309 5.49907 19.0309ZM41.0961 17.6186C40.827 17.6186 40.5668 17.4709 40.4352 17.2159L40.424 17.1943C40.2438 16.8275 40.3948 16.3845 40.7616 16.2043C41.1279 16.0241 41.5709 16.1752 41.7515 16.5415L41.7519 16.543C41.9395 16.9057 41.7956 17.349 41.4326 17.5363C41.3249 17.592 41.2098 17.6186 41.0961 17.6186ZM6.82321 16.352C6.69199 16.352 6.55891 16.3172 6.4389 16.2436C6.09086 16.0316 5.98058 15.5782 6.19105 15.2301C6.39479 14.8821 6.84153 14.7609 7.19369 14.9606C7.54884 15.1621 7.6737 15.6133 7.47257 15.9684C7.46696 15.9782 7.46098 15.9879 7.455 15.9976C7.31593 16.226 7.07256 16.352 6.82321 16.352ZM39.5608 15.0533C39.3241 15.0533 39.0912 14.9396 38.9484 14.7292C38.711 14.3968 38.7899 13.9381 39.1226 13.7007C39.4546 13.4633 39.9189 13.5437 40.1563 13.8761L40.172 13.8985C40.4012 14.2364 40.3133 14.6963 39.9754 14.9258C39.8483 15.0122 39.704 15.0533 39.5608 15.0533ZM8.54138 13.9075C8.37465 13.9075 8.20754 13.8514 8.06922 13.737C7.7552 13.476 7.71183 13.0099 7.97277 12.6955L7.97913 12.688C8.24007 12.3736 8.70587 12.3306 9.02027 12.5912C9.33467 12.8521 9.37804 13.3183 9.1171 13.6327L9.11074 13.6402C8.96457 13.8166 8.75372 13.9075 8.54138 13.9075ZM37.6557 12.7527C37.4613 12.7527 37.2673 12.6768 37.1222 12.5254C36.8362 12.2338 36.8403 11.7646 37.1323 11.4786C37.4235 11.193 37.8912 11.1971 38.1768 11.4887L38.1892 11.501C38.4722 11.7956 38.4624 12.2641 38.1679 12.5467C38.0243 12.6846 37.84 12.7527 37.6557 12.7527ZM10.611 11.7526C10.4061 11.7526 10.2027 11.6685 10.0566 11.5033C9.7859 11.1975 9.81468 10.7302 10.1205 10.4595L10.1235 10.4569C10.4274 10.1851 10.8951 10.2098 11.1676 10.5137C11.4398 10.8173 11.4158 11.2835 11.1127 11.5564L11.1007 11.5672C10.9598 11.6917 10.7848 11.7526 10.611 11.7526ZM35.4227 10.7676C35.271 10.7676 35.1184 10.7212 34.9865 10.6248L34.9614 10.6057C34.6392 10.3549 34.5809 9.89054 34.8317 9.56792C35.0822 9.24604 35.5454 9.18772 35.8676 9.43708C36.1906 9.6797 36.2594 10.138 36.0201 10.4648C35.8751 10.6629 35.6504 10.7676 35.4227 10.7676ZM35.4893 9.92718L35.4153 10.0221L35.4893 9.92718ZM12.9826 9.93727C12.7385 9.93727 12.4996 9.81652 12.3587 9.59558C12.1392 9.25165 12.2398 8.79557 12.5826 8.57537C12.9198 8.35257 13.3748 8.44191 13.6021 8.77725C13.8316 9.1152 13.7434 9.57502 13.4054 9.80419L13.3796 9.82138C13.2566 9.89989 13.1191 9.93727 12.9826 9.93727ZM32.9124 9.14436C32.7958 9.14436 32.6773 9.11669 32.567 9.058L32.5494 9.04828C32.1916 8.85164 32.0612 8.40191 32.2578 8.04415C32.4545 7.68638 32.9042 7.55591 33.2619 7.75255L33.2642 7.75367C33.6212 7.94844 33.7562 8.39668 33.5633 8.75482C33.4294 9.00305 33.1752 9.14436 32.9124 9.14436ZM15.6029 8.50472C15.321 8.50472 15.0514 8.34285 14.9281 8.06957C14.7598 7.6976 14.9251 7.25983 15.2971 7.0916L15.3142 7.08413C15.6881 6.92001 16.124 7.09085 16.2881 7.46507C16.4515 7.83928 16.281 8.27518 15.9068 8.43892C15.8081 8.48341 15.7045 8.50472 15.6029 8.50472Z" fill="#A7C7D3"/>
<path d="M29.3348 39.9202L18.2014 28.7868C17.5035 28.0892 17.5027 26.9602 18.1996 26.2638C18.4747 25.9886 18.8186 25.8219 19.176 25.7654C19.7215 25.6776 20.3005 25.8439 20.7226 26.266L17.8556 23.399C17.5072 23.0506 17.3322 22.5938 17.3322 22.1381C17.3322 22.0431 17.3397 21.9478 17.355 21.8528C17.4122 21.4947 17.5782 21.1515 17.8538 20.876C18.1263 20.6035 18.4642 20.4382 18.8171 20.3795C19.2975 20.2995 19.8037 20.4165 20.2071 20.7309L19.1162 19.6401C18.7674 19.2913 18.5925 18.8333 18.5925 18.3772C18.5917 18.2804 18.6003 18.1828 18.6164 18.0875C18.6736 17.7316 18.8392 17.3903 19.1132 17.1163C19.3887 16.8408 19.7323 16.674 20.0916 16.6176C20.6366 16.5297 21.2161 16.6965 21.6378 17.1181L22.8871 18.3675C22.4662 17.9466 22.2987 17.3664 22.3866 16.8213C22.443 16.4635 22.609 16.1204 22.8853 15.8445C23.581 15.1488 24.7111 15.1495 25.4083 15.8467L32.6436 23.082L32.6638 23.0532C33.0305 22.6865 33.4627 22.4259 33.9236 22.2704C35.0612 21.8868 36.3708 22.1489 37.2785 23.057L40.652 26.4305C41.3006 27.0787 41.6644 27.9573 41.6659 28.8732L41.6677 30.9839C41.6685 31.9701 42.061 32.9163 42.7597 33.615L43.5119 34.3671L34.9072 42.9718L33.9457 42.0103C33.3064 41.371 32.4559 40.986 31.5546 40.9269C30.7172 40.872 29.9288 40.5142 29.3348 39.9202Z" fill="#FECBAA"/>
<path d="M34.3479 43.5306L44.1149 33.7636C44.4368 33.4417 44.9583 33.4417 45.2801 33.7636L48.7583 37.2418C49.0802 37.5637 49.0802 38.0856 48.7583 38.4071L38.9918 48.1741C38.6699 48.4959 38.148 48.4959 37.8265 48.1741L34.3479 44.6958C34.0264 44.374 34.0264 43.8521 34.3479 43.5306Z" fill="#FDD559"/>
<path d="M44.3745 38.1477C44.6634 38.4367 45.1311 38.4371 45.4193 38.1489C45.7076 37.8606 45.7072 37.3926 45.4186 37.104C45.1296 36.815 44.6619 36.8146 44.3737 37.1029C44.0855 37.3915 44.0859 37.8591 44.3745 38.1477Z" fill="#FF8812"/>
<path d="M35.135 25.5728L32.6437 23.0819L32.6639 23.0531C33.0306 22.6863 33.4628 22.4258 33.9237 22.2703L36.1806 24.5271C36.4692 24.8157 36.4692 25.2842 36.1806 25.5728C35.8912 25.8621 35.4236 25.8614 35.135 25.5728Z" fill="#FFAE85"/>
<path d="M19.6652 39.9213L30.7985 28.7879C31.4965 28.09 31.4972 26.9613 30.8007 26.2649C30.5252 25.9894 30.1817 25.8226 29.8239 25.7662C29.2785 25.6783 28.6994 25.8451 28.2773 26.2668L31.1443 23.4001C31.4927 23.0517 31.6677 22.5949 31.6677 22.1388C31.6677 22.0442 31.6602 21.9485 31.6449 21.8539C31.5877 21.4954 31.4217 21.1526 31.1462 20.8771C30.8736 20.6046 30.5357 20.4393 30.1828 20.3806C29.7024 20.3006 29.1962 20.4176 28.7928 20.732L29.8837 19.6408C30.2325 19.2924 30.4075 18.8344 30.4075 18.3783C30.4082 18.2811 30.3996 18.1836 30.3835 18.0882C30.3267 17.7327 30.1607 17.391 29.8867 17.117C29.6112 16.8419 29.2676 16.6751 28.9084 16.6187C28.3633 16.5308 27.7838 16.6972 27.3622 17.1193L26.1128 18.3686C26.5337 17.9473 26.7012 17.3675 26.6133 16.822C26.5569 16.4647 26.3909 16.1215 26.1146 15.8452C25.4189 15.1495 24.2888 15.1502 23.5916 15.8474L16.3563 23.0828L16.3361 23.0543C15.9694 22.6876 15.5372 22.427 15.0763 22.2715C13.9383 21.888 12.6291 22.15 11.7214 23.0577L8.34789 26.4316C7.69927 27.0799 7.33553 27.9584 7.33403 28.8743L7.33179 30.9846C7.33141 31.9712 6.93888 32.9174 6.24017 33.6161L5.48801 34.3682L14.0927 42.9729L15.0542 42.0114C15.6935 41.3721 16.544 40.9871 17.4453 40.928C18.2827 40.8731 19.0711 40.5153 19.6652 39.9213Z" fill="#FECBAA"/>
<path d="M14.6524 43.5317L4.88549 33.7651C4.56361 33.4432 4.0421 33.4432 3.72023 33.7651L0.242018 37.2433C-0.0798588 37.5652 -0.0798588 38.0867 0.242018 38.4086L10.0086 48.1755C10.3305 48.4974 10.8524 48.4974 11.1742 48.1755L14.6524 44.6973C14.9743 44.3754 14.9743 43.8535 14.6524 43.5317Z" fill="#FF84A7"/>
<path d="M11.3184 44.8414C11.6074 44.5524 11.6078 44.0848 11.3195 43.7965C11.0313 43.5079 10.5633 43.5083 10.2747 43.7973C9.98568 44.0859 9.98531 44.5539 10.2735 44.8422C10.5621 45.1304 11.0298 45.13 11.3184 44.8414Z" fill="#EF6085"/>
<path d="M13.8654 25.574L16.3563 23.0827L16.3361 23.0543C15.9694 22.6876 15.5372 22.427 15.0763 22.2715L12.8194 24.528C12.5308 24.8166 12.5308 25.2854 12.8194 25.574C13.1088 25.8634 13.5764 25.8626 13.8654 25.574Z" fill="#FFAE85"/>
<path d="M31.6204 13.2394V28.9845C31.6204 29.9714 30.823 30.7699 29.838 30.7699C29.4484 30.7699 29.0877 30.6447 28.7946 30.4316C28.3471 30.1082 28.0551 29.5807 28.0551 28.9845V33.0388C28.0551 33.5315 27.8559 33.9782 27.5336 34.3005C27.4667 34.3678 27.3934 34.4298 27.3157 34.4859C27.0218 34.699 26.6622 34.8242 26.2727 34.8242C25.8872 34.8242 25.531 34.702 25.2401 34.4941C24.8438 34.2111 24.5687 33.7704 24.5059 33.2623V34.8055C24.5059 35.2986 24.3055 35.7461 23.9833 36.0684C23.9152 36.1375 23.8401 36.2007 23.7616 36.2568C23.4696 36.468 23.1107 36.5921 22.723 36.5921C22.3339 36.5921 21.9727 36.4669 21.6789 36.253C21.2314 35.9297 20.9394 35.4022 20.9394 34.8055V33.0388C20.9394 33.6343 20.6479 34.1625 20.2 34.4859C19.9073 34.699 19.5473 34.8242 19.157 34.8242C18.1727 34.8242 17.3741 34.0246 17.3741 33.0388V22.8064L17.3397 22.8124C16.8212 22.8124 16.3311 22.6909 15.8952 22.4752C14.8197 21.9417 14.0791 20.8306 14.0791 19.5469V14.7755C14.0791 13.8589 14.4428 12.9804 15.0896 12.3314L16.5805 10.8379C17.2777 10.1396 17.6691 9.19337 17.6691 8.20531V7.14136H29.8376V8.50101C29.8376 9.40496 30.167 10.2786 30.7625 10.9579C31.3158 11.5889 31.6204 12.3994 31.6204 13.2394Z" fill="#FEDFC5"/>
<path d="M30.8006 26.2649C30.5251 25.9894 30.1815 25.823 29.8237 25.7662C29.2783 25.6783 28.6992 25.8451 28.2772 26.2671L31.1441 23.4001C31.4926 23.0517 31.6679 22.5949 31.6679 22.1392C31.6679 22.0442 31.66 21.9485 31.6447 21.8539C31.5875 21.4954 31.4219 21.1526 31.1464 20.8771C30.8739 20.6046 30.5355 20.4393 30.183 20.3806C29.7026 20.3006 29.1964 20.4176 28.7927 20.732L29.8839 19.6408C30.2323 19.2924 30.4073 18.8344 30.4073 18.3783C30.408 18.2815 30.3998 18.1839 30.3837 18.0882C30.3266 17.7327 30.1606 17.391 29.8865 17.117C29.6114 16.8419 29.2675 16.6751 28.9086 16.6187C28.3635 16.5308 27.7837 16.6976 27.362 17.1193L26.1126 18.3686C26.5336 17.9473 26.701 17.3675 26.6132 16.822C26.5567 16.4647 26.3908 16.1215 26.1149 15.8452C25.4188 15.1495 24.2887 15.1502 23.5914 15.8474L16.3561 23.0828L16.336 23.0543C15.9692 22.6876 15.5371 22.427 15.0761 22.2715C14.5303 22.0876 13.9452 22.0536 13.3834 22.1668C13.8357 22.8506 14.4682 23.4177 15.2391 23.8002C15.4529 23.9059 15.672 23.9949 15.8956 24.0667V33.0385C15.8956 34.8385 17.3588 36.3029 19.157 36.3029C19.3734 36.3029 19.5865 36.2819 19.794 36.2408C20.0261 36.7152 20.3723 37.1328 20.8086 37.4479C21.0792 37.6453 21.3746 37.7964 21.6852 37.901L30.7983 28.7879C31.4963 28.09 31.497 26.9613 30.8006 26.2649Z" fill="#FFAE85"/>
<path d="M33.0985 28.9842V22.6872C32.9456 22.7945 32.7998 22.9168 32.663 23.0532L32.6428 23.082L25.4075 15.8467C24.7103 15.1495 23.5802 15.1488 22.8845 15.8445C22.6082 16.1204 22.4422 16.4635 22.3858 16.8213C22.2979 17.3664 22.4654 17.9466 22.8863 18.3675L21.637 17.1181C21.2153 16.6965 20.6358 16.5297 20.0908 16.6176C19.7315 16.674 19.3879 16.8408 19.1124 17.1163C18.8384 17.3903 18.6724 17.7316 18.6152 18.0875C18.5995 18.1828 18.5909 18.2804 18.5917 18.3772C18.5917 18.8333 18.7666 19.2913 19.1154 19.6401L20.2063 20.7309C19.8025 20.4165 19.2967 20.2995 18.8163 20.3795C18.4634 20.4382 18.1255 20.6035 17.853 20.876C17.5774 21.1515 17.4115 21.4947 17.3543 21.8528C17.3389 21.9478 17.3311 22.0431 17.3314 22.1381C17.3311 22.5942 17.5064 23.0506 17.8548 23.399L20.7218 26.266C20.3001 25.8443 19.7207 25.6776 19.1756 25.7654C18.8178 25.8219 18.4739 25.9886 18.1988 26.2638C17.5023 26.9606 17.503 28.0892 18.2006 28.7872L25.6591 36.2453C25.8595 36.2834 26.0644 36.3029 26.2718 36.3029C26.9631 36.3029 27.624 36.0887 28.1803 35.6853C28.322 35.5829 28.4562 35.4688 28.5788 35.3462C29.1945 34.7305 29.5336 33.911 29.5336 33.0385V32.2347C29.6338 32.2441 29.7355 32.2486 29.8372 32.2486C31.6353 32.2486 33.0985 30.7842 33.0985 28.9842Z" fill="#FFAE85"/>
<path d="M31.6204 13.2394V28.9845C31.6204 29.9714 30.823 30.7699 29.838 30.7699C29.8114 30.7699 29.7826 30.7699 29.7542 30.7681C29.398 30.7512 29.0679 30.6301 28.7968 30.4327C28.7957 30.4327 28.7957 30.4316 28.7946 30.4316C28.3471 30.1082 28.0551 29.5807 28.0551 28.9845V33.0388C28.0551 33.5315 27.8559 33.9782 27.5336 34.3005C27.4667 34.3678 27.3934 34.4298 27.3157 34.4859C27.0218 34.699 26.6622 34.8242 26.2727 34.8242C25.8872 34.8242 25.531 34.702 25.2401 34.4941C24.8438 34.2111 24.5687 33.7704 24.5059 33.2623V34.8055C24.5059 35.2986 24.3055 35.7461 23.9833 36.0684C23.9152 36.1375 23.8401 36.2007 23.7616 36.2568C23.4696 36.468 23.1107 36.5921 22.723 36.5921C22.3339 36.5921 21.9727 36.4669 21.6789 36.253C21.2314 35.9297 20.9394 35.4022 20.9394 34.8055V33.0388C20.9394 33.6343 20.6479 34.1625 20.2 34.4859C19.9073 34.699 19.5473 34.8242 19.157 34.8242C18.1727 34.8242 17.3741 34.0246 17.3741 33.0388V22.8064L17.3397 22.8124C16.8212 22.8124 16.3311 22.6909 15.8952 22.4752C14.8197 21.9417 14.0791 20.8306 14.0791 19.5469V14.7755C14.0791 13.8589 14.4428 12.9804 15.0896 12.3314L16.5805 10.8379C17.0115 10.4061 17.3259 9.87936 17.5024 9.30552C17.613 8.95074 17.6691 8.5769 17.6691 8.20531V7.14136H29.8376V8.50101C29.8376 8.80569 29.8705 9.1272 29.955 9.42066C30.097 9.98591 30.3733 10.5134 30.7625 10.9579C31.3109 11.5841 31.6204 12.4054 31.6204 13.2394Z" fill="#FEDFC5"/>
<path d="M31.6206 13.2394V28.9845C31.6206 29.9714 30.8232 30.7699 29.8381 30.7699C29.8116 30.7699 29.7828 30.7699 29.7544 30.7681C29.3981 30.7512 29.068 30.6301 28.797 30.4327L28.8273 15.2608C28.8273 15.1692 28.8067 15.0242 28.7682 14.8398C28.0878 11.5258 25.2907 9.30552 21.9079 9.30552H17.5025C17.6132 8.95037 17.6693 8.5769 17.6693 8.20531V7.14136H29.8378V8.50101C29.8378 8.80569 29.8707 9.1272 29.9551 9.42066C30.0972 9.98591 30.3735 10.5134 30.7626 10.9579C31.3111 11.5841 31.6206 12.4054 31.6206 13.2394Z" fill="#FECBAA"/>
<path d="M30.6288 7.14147H16.8161C16.3612 7.14147 15.9922 6.77249 15.9922 6.31753V1.39816C15.9922 0.943199 16.3612 0.574219 16.8161 0.574219H30.6288C31.0838 0.574219 31.4527 0.943199 31.4527 1.39816V6.31753C31.4527 6.77249 31.0838 7.14147 30.6288 7.14147Z" fill="#83D9FF"/>
<path d="M19.8956 3.85762C19.8956 3.44901 19.5651 3.11816 19.1573 3.11816C18.7494 3.11816 18.4189 3.44901 18.4189 3.85762C18.4189 4.26585 18.7494 4.59708 19.1573 4.59708C19.5651 4.59708 19.8956 4.26585 19.8956 3.85762Z" fill="#5186FF"/>
<path d="M28.795 20.7443V30.4313C28.3472 30.1079 28.0552 29.5804 28.0552 28.9838V33.0381C28.0552 33.5312 27.8563 33.9779 27.5337 34.3002C27.4668 34.3674 27.3939 34.4295 27.3157 34.4856V20.7443C27.3157 20.3361 27.6473 20.0049 28.0552 20.0049C28.4634 20.0049 28.795 20.3361 28.795 20.7443Z" fill="#FECBAA"/>
<path d="M25.2404 20.7443V34.4934C24.8437 34.2104 24.5689 33.7697 24.5058 33.262V34.8052C24.5058 35.2979 24.3058 35.7458 23.9831 36.068C23.9151 36.1372 23.8403 36.2 23.7614 36.2565V20.7443C23.7614 20.3361 24.0927 20.0049 24.5009 20.0049C24.9091 20.0049 25.2404 20.3361 25.2404 20.7443Z" fill="#FECBAA"/>
<path d="M21.6789 20.7443V36.2523C21.2314 35.929 20.9395 35.4015 20.9395 34.8052V33.0381C20.9395 33.6336 20.6479 34.1622 20.2 34.4856V20.7443C20.2 20.3361 20.5316 20.0049 20.9395 20.0049C21.3488 20.0049 21.6789 20.3361 21.6789 20.7443Z" fill="#FECBAA"/>
<path d="M17.3745 19.2832V22.8062L17.3397 22.8118C16.8212 22.8118 16.3311 22.6907 15.8956 22.475V19.2832C15.8956 18.8749 16.2268 18.5437 16.635 18.5437C17.044 18.5437 17.3745 18.8749 17.3745 19.2832Z" fill="#FECBAA"/>
</svg>
