<svg width="49" height="49" viewBox="0 0 49 49" fill="none" xmlns="http://www.w3.org/2000/svg">
<path d="M37.1724 9.2931V49H0.844828C0.378275 49 0 48.6217 0 48.1552V0.844828C0 0.378275 0.378275 0 0.844828 0H27.8793V9.2931H37.1724Z" fill="#FFBCAB"/>
<path d="M37.1724 9.2931H27.8793V0L37.1724 9.2931Z" fill="#FF9478"/>
<path d="M20.2759 22.8103H14.3621V16.8965C17.6284 16.8965 20.2759 19.544 20.2759 22.8103Z" fill="#4E901E"/>
<path d="M11.8276 25.3449H17.7414C17.7414 28.6112 15.0939 31.2587 11.8276 31.2587C8.56131 31.2587 5.9138 28.6112 5.9138 25.3449C5.9138 22.0787 8.56131 19.4312 11.8276 19.4312V25.3449Z" fill="#91DC5A"/>
<path d="M30.4138 42.2415H49V45.6208H30.4138V42.2415Z" fill="#FFEB99"/>
<path d="M28.7241 35.4827H47.3103V38.862H28.7241V35.4827Z" fill="#FFEB99"/>
<path d="M27.8793 32.1035H46.4655V35.4828H27.8793V32.1035Z" fill="#FFDA44"/>
<path d="M27.0345 45.6206H45.6207V48.9999H27.0345V45.6206Z" fill="#FFDA44"/>
<path d="M27.0345 38.8621H45.6207V42.2414H27.0345V38.8621Z" fill="#FFDA44"/>
<path d="M46.4655 22.8104C46.4655 27.9429 42.3049 32.1035 37.1724 32.1035C32.0399 32.1035 27.8793 27.9429 27.8793 22.8104C27.8793 17.6779 32.0399 13.5173 37.1724 13.5173C42.3049 13.5173 46.4655 17.6779 46.4655 22.8104Z" fill="#FFEB99"/>
<path d="M43.931 22.8104C43.931 26.5432 40.9052 29.569 37.1724 29.569C33.4396 29.569 30.4138 26.5432 30.4138 22.8104C30.4138 19.0775 33.4396 16.0518 37.1724 16.0518C40.9052 16.0518 43.931 19.0775 43.931 22.8104Z" fill="#FFDA44"/>
<path d="M38.0172 21.9656V20.2759C38.4838 20.2759 38.8621 20.6542 38.8621 21.1208H40.5517C40.5517 19.7211 39.4169 18.5863 38.0172 18.5863V17.7415H36.3276V18.5863C34.9279 18.5863 33.7931 19.7211 33.7931 21.1208C33.7931 22.5204 34.9279 23.6552 36.3276 23.6552V25.3449C35.861 25.3449 35.4828 24.9666 35.4828 24.5001H33.7931C33.7931 25.8997 34.9279 27.0346 36.3276 27.0346V27.8794H38.0172V27.0346C39.4169 27.0346 40.5517 25.8997 40.5517 24.5001C40.5517 23.1004 39.4169 21.9656 38.0172 21.9656ZM35.4828 21.1208C35.4828 20.6542 35.861 20.2759 36.3276 20.2759V21.9656C35.861 21.9656 35.4828 21.5873 35.4828 21.1208ZM38.0172 25.3449V23.6552C38.4838 23.6552 38.8621 24.0335 38.8621 24.5001C38.8621 24.9666 38.4838 25.3449 38.0172 25.3449Z" fill="white"/>
<path d="M21.9655 32.9482C20.5675 32.9524 19.4352 34.0847 19.431 35.4827C19.4347 35.9221 19.5548 36.3523 19.7784 36.7306L17.8012 39.0394C17.0182 38.7391 16.1371 38.8443 15.447 39.3208L13.41 37.8695C13.688 36.9335 13.4009 35.9216 12.6724 35.2715C11.7983 34.4807 10.4943 34.397 9.52617 35.0694C8.558 35.7418 8.18138 36.9929 8.61741 38.0882L6.33621 40.0447C5.26243 39.4222 3.89578 39.6644 3.10169 40.6185C2.30719 41.5723 2.31585 42.96 3.12231 43.9034C3.92919 44.8472 5.29832 45.072 6.36426 44.4355C7.43019 43.7994 7.88231 42.4876 7.43432 41.3297L9.71552 39.3731C10.5698 39.8545 11.6238 39.8059 12.4299 39.2482L14.466 40.6994C14.1892 41.6362 14.4788 42.6485 15.2085 43.2974C16.1388 44.1171 17.5252 44.1435 18.486 43.3597C19.4467 42.5763 19.6996 41.213 19.0837 40.1367L21.0497 37.8481C21.3418 37.9615 21.6524 38.0189 21.9655 38.0172C23.3652 38.0172 24.5 36.8824 24.5 35.4827C24.5 34.0831 23.3652 32.9482 21.9655 32.9482Z" fill="#D80027"/>
<path d="M2.53449 4.22412H5.9138V5.91378H2.53449V4.22412Z" fill="#1A6FB0"/>
<path d="M7.60345 4.22412H21.1207V5.91378H7.60345V4.22412Z" fill="#1A6FB0"/>
<path d="M2.53449 7.60352H5.9138V9.29317H2.53449V7.60352Z" fill="#1A6FB0"/>
<path d="M7.60345 7.60352H21.1207V9.29317H7.60345V7.60352Z" fill="#1A6FB0"/>
<path d="M10.9828 12.6723V10.9827H2.53449V12.6723H10.9828Z" fill="#1A6FB0"/>
<path d="M12.6724 10.9827H21.1207V12.6723H12.6724V10.9827Z" fill="#1A6FB0"/>
<path d="M2.53449 14.3621H5.9138V16.0517H2.53449V14.3621Z" fill="#1A6FB0"/>
</svg>
