<svg width="51" height="51" viewBox="0 0 51 51" fill="none" xmlns="http://www.w3.org/2000/svg">
<path d="M16.6148 44.6468C34.6582 44.6468 44.5253 29.6984 44.5253 16.7363C44.5253 16.3117 44.5166 15.8889 44.4976 15.4685C46.4127 14.0837 48.0773 12.3556 49.3908 10.3887C47.6332 11.1702 45.7414 11.6957 43.7575 11.9334C45.7826 10.7185 47.3376 8.79747 48.0709 6.50743C46.1756 7.6311 44.0765 8.44747 41.842 8.8884C40.052 6.98169 37.5032 5.78931 34.6813 5.78931C29.2644 5.78931 24.8711 10.1822 24.8711 15.5974C24.8711 16.3676 24.9574 17.1161 25.1255 17.8342C16.9727 17.424 9.7429 13.5208 4.90523 7.5852C4.06313 9.0346 3.57717 10.7188 3.57717 12.5159C3.57717 15.9187 5.30902 18.9237 7.94233 20.681C6.33299 20.6316 4.82131 20.1898 3.49968 19.4544C3.49822 19.4956 3.49822 19.5357 3.49822 19.5795C3.49822 24.3304 6.87948 28.297 11.3686 29.1958C10.5441 29.4201 9.67653 29.5408 8.7818 29.5408C8.15081 29.5408 7.53561 29.4788 6.93796 29.3639C8.18677 33.2616 11.8084 36.0978 16.1019 36.1773C12.7443 38.8089 8.51484 40.3764 3.9181 40.3764C3.12746 40.3764 2.34589 40.3311 1.57806 40.2404C5.91954 43.0232 11.0748 44.6471 16.6151 44.6471" fill="#4F4F4F"/>
</svg>
